<?xml version="1.0" standalone="no"?>
<!DOCTYPE svg PUBLIC "-//W3C//DTD SVG 20010904//EN"
 "http://www.w3.org/TR/2001/REC-SVG-20010904/DTD/svg10.dtd">
<svg version="1.0" xmlns="http://www.w3.org/2000/svg"
 width="260.000000pt" height="260.000000pt" viewBox="0 0 260.000000 260.000000"
 preserveAspectRatio="xMidYMid meet">
<metadata>
Created by potrace 1.11, written by Peter Selinger 2001-2013
</metadata>
<g transform="translate(0.000000,260.000000) scale(0.100000,-0.100000)"
fill="#000000" stroke="none">
<path d="M0 1300 l0 -1300 1300 0 1300 0 0 1300 0 1300 -1300 0 -1300 0 0
-1300z m1880 583 c-1 -19 -19 -30 -70 -41 -165 -36 -306 -191 -429 -468 -51
-115 -88 -219 -171 -480 -28 -89 -57 -170 -64 -180 -13 -17 -15 -15 -26 26
-34 129 -140 298 -234 373 -54 43 -159 97 -188 97 -21 0 -22 4 -8 30 9 17 13
18 49 6 110 -40 191 -99 258 -190 48 -65 112 -185 133 -251 16 -49 9 -66 100
230 74 239 145 405 237 555 50 81 167 208 221 242 60 37 192 72 192 51z
m-1680 -473 c0 -5 -9 -10 -20 -10 -18 0 -20 -7 -20 -55 0 -30 -4 -55 -10 -55
-5 0 -10 25 -10 55 0 48 -2 55 -20 55 -11 0 -20 5 -20 10 0 6 23 10 50 10 28
0 50 -4 50 -10z m100 1 c0 -6 -14 -11 -32 -13 -46 -4 -49 -28 -4 -28 45 0 48
-18 4 -22 -22 -2 -34 -9 -36 -20 -3 -15 4 -18 32 -18 20 0 36 -4 36 -10 0 -5
-20 -10 -45 -10 l-45 0 0 58 c0 32 3 62 7 65 10 11 83 8 83 -2z m95 -39 c9
-20 18 -47 21 -61 l5 -26 -19 23 c-25 27 -59 29 -67 2 -3 -11 -11 -20 -16 -20
-11 0 -6 23 22 88 21 48 32 47 54 -6z m76 11 c18 -58 21 -59 39 -13 26 67 40
62 40 -14 0 -69 -19 -95 -21 -28 l-1 37 -12 -34 c-17 -49 -30 -48 -47 1 l-14
43 -3 -43 c-4 -59 -22 -42 -22 22 0 77 20 91 41 29z m239 27 c0 -5 -16 -10
-35 -10 -24 0 -35 -5 -35 -15 0 -10 10 -15 29 -15 17 0 33 -4 36 -10 4 -6 -8
-10 -29 -10 -29 0 -36 -4 -36 -20 0 -16 7 -20 35 -20 19 0 35 -4 35 -10 0 -5
-20 -10 -45 -10 l-45 0 0 65 0 65 45 0 c25 0 45 -4 45 -10z m85 -10 c25 27 32
17 10 -16 -16 -25 -16 -27 5 -56 28 -38 15 -52 -14 -15 l-22 27 -21 -27 c-11
-16 -24 -25 -28 -21 -4 3 3 20 15 36 21 28 21 32 6 53 -24 34 -20 46 7 21 l24
-22 18 20z m129 4 c9 -8 16 -19 16 -24 0 -17 -32 -40 -56 -40 -19 0 -24 -5
-24 -25 0 -14 -4 -25 -10 -25 -6 0 -10 28 -10 65 l0 65 34 0 c19 0 42 -7 50
-16z m116 7 c0 -6 -14 -11 -32 -13 -46 -4 -49 -28 -4 -28 45 0 48 -18 4 -22
-22 -2 -34 -9 -36 -20 -3 -15 4 -18 38 -18 25 0 39 -4 35 -10 -3 -5 -26 -10
-51 -10 l-44 0 0 58 c0 32 3 62 7 65 10 11 83 8 83 -2z m114 -13 c8 -13 8 -23
-1 -37 -9 -15 -8 -23 4 -40 25 -36 5 -38 -27 -2 -33 35 -50 34 -50 -5 0 -13
-4 -24 -10 -24 -11 0 -14 113 -3 124 13 13 76 1 87 -16z m116 12 c0 -5 -9 -10
-20 -10 -18 0 -20 -7 -20 -55 0 -30 -4 -55 -10 -55 -5 0 -10 25 -10 55 0 48
-2 55 -20 55 -11 0 -20 5 -20 10 0 6 23 10 50 10 28 0 50 -4 50 -10z m819
-177 c37 -89 69 -164 72 -168 4 -3 64 71 135 164 l129 170 43 1 c23 0 42 -1
42 -3 0 -2 -16 -88 -35 -191 -19 -104 -35 -193 -35 -197 0 -5 -13 -9 -30 -9
-18 0 -30 5 -30 13 1 6 14 80 29 162 16 83 28 151 27 152 -1 2 -58 -71 -127
-162 -112 -148 -127 -164 -154 -165 -30 0 -31 2 -95 161 -63 156 -80 190 -80
152 0 -10 -12 -84 -27 -165 l-27 -148 -28 0 c-16 0 -28 5 -28 13 0 13 56 325
65 365 5 20 11 23 47 20 l41 -3 66 -162z m-234 132 c31 -30 35 -85 6 -85 -12
0 -21 9 -25 25 -10 41 -36 47 -191 43 -158 -3 -170 -8 -180 -63 -10 -57 -2
-60 177 -63 150 -3 165 -5 186 -24 41 -39 24 -144 -30 -182 -18 -13 -54 -16
-184 -16 -89 0 -170 3 -179 6 -19 8 -45 55 -45 84 0 15 6 20 25 20 19 0 25 -5
25 -23 0 -43 15 -47 172 -47 145 0 150 1 173 25 32 31 35 89 6 105 -11 5 -85
10 -169 10 -136 0 -152 2 -176 21 -32 25 -35 76 -8 129 27 54 48 60 230 60
160 0 163 0 187 -25z"/>
<path d="M356 1365 c-3 -9 0 -15 9 -15 16 0 20 16 6 24 -5 3 -11 -1 -15 -9z"/>
<path d="M860 1380 c0 -14 7 -20 23 -20 30 0 40 10 26 27 -18 20 -49 16 -49
-7z"/>
<path d="M1085 1390 c-4 -7 -3 -16 3 -22 13 -13 54 0 49 15 -5 16 -43 21 -52
7z"/>
</g>
</svg>
